<svg width="249" height="83" viewBox="0 0 249 83" fill="none" xmlns="http://www.w3.org/2000/svg">
<g clip-path="url(#clip0_1561_9249)">
<path d="M228.534 0.000269209H20.2078C19.4485 0.000269209 18.6982 0.000269209 17.9408 0.00441088C17.3068 0.00855255 16.6779 0.0205841 16.0378 0.0307105C14.6473 0.0470738 13.26 0.169407 11.8881 0.396648C10.5181 0.628836 9.19097 1.06658 7.95167 1.69506C6.71389 2.32887 5.5829 3.15243 4.59972 4.13587C3.61137 5.11655 2.78751 6.25009 2.15981 7.49289C1.53038 8.73321 1.09393 10.0623 0.865541 11.4344C0.634976 12.8046 0.510907 14.1907 0.494447 15.5802C0.47523 16.2151 0.4732 16.8521 0.463074 17.4871V65.353C0.4732 65.996 0.47523 66.6189 0.494447 67.2621C0.510912 68.6515 0.634981 70.0375 0.865541 71.4077C1.0933 72.7805 1.52978 74.1104 2.15981 75.3512C2.78723 76.59 3.6112 77.7189 4.59972 78.6941C5.57917 79.6819 6.7109 80.5061 7.95167 81.135C9.19096 81.7652 10.5179 82.2055 11.8881 82.4413C13.2603 82.6667 14.6474 82.7891 16.0378 82.8074C16.6779 82.8215 17.3068 82.8296 17.9408 82.8296C18.6982 82.8337 19.4485 82.8337 20.2078 82.8337H228.534C229.278 82.8337 230.035 82.8337 230.779 82.8296C231.41 82.8296 232.057 82.8215 232.688 82.8074C234.076 82.7901 235.46 82.6677 236.83 82.4413C238.204 82.2039 239.536 81.7636 240.781 81.135C242.021 80.5057 243.152 79.6816 244.13 78.6941C245.116 77.7151 245.942 76.587 246.577 75.3512C247.203 74.1095 247.635 72.7797 247.859 71.4077C248.09 70.0373 248.219 68.6516 248.244 67.2621C248.252 66.6189 248.252 65.996 248.252 65.353C248.268 64.6006 248.268 63.8524 248.268 63.0879V19.748C248.268 18.9897 248.268 18.2374 248.252 17.4871C248.252 16.8521 248.252 16.2151 248.244 15.5801C248.219 14.1905 248.09 12.8047 247.859 11.4343C247.634 10.063 247.202 8.73403 246.577 7.4928C245.299 5.00175 243.272 2.97404 240.781 1.69488C239.536 1.06792 238.204 0.630301 236.83 0.396462C235.461 0.16822 234.076 0.0458437 232.688 0.0304206C232.057 0.0203149 231.41 0.0081798 230.779 0.00414167C230.035 0 229.278 0.000269209 228.534 0.000269209Z" fill="#A6A6A6"/>
<path d="M17.9509 81.0219C17.32 81.0219 16.7043 81.0139 16.0783 80.9998C14.7815 80.9829 13.4877 80.87 12.2076 80.662C11.014 80.4565 9.85764 80.0741 8.77678 79.5274C7.70583 78.9853 6.72904 78.2745 5.88382 77.4222C5.02637 76.5799 4.3125 75.6031 3.77051 74.5303C3.22255 73.4505 2.84332 72.2932 2.64605 71.0985C2.43301 69.8148 2.31775 68.5168 2.30125 67.2157C2.28812 66.7789 2.27094 65.3248 2.27094 65.3248V17.4873C2.27094 17.4873 2.28924 16.0555 2.30136 15.6349C2.31715 14.3358 2.43174 13.0398 2.64414 11.7581C2.84178 10.5602 3.2213 9.39946 3.76956 8.31617C4.30956 7.24413 5.01946 6.26652 5.87175 5.42124C6.72307 4.56794 7.70299 3.85346 8.77577 3.30388C9.85414 2.75901 11.0083 2.37929 12.1995 2.17747C13.4838 1.96741 14.7821 1.85385 16.0834 1.83772L17.952 1.81244H230.769L232.66 1.83874C233.949 1.85406 235.236 1.96661 236.508 2.17544C237.711 2.3798 238.878 2.76216 239.968 3.30994C242.117 4.41752 243.866 6.16982 244.969 8.32122C245.509 9.39704 245.883 10.5483 246.078 11.7359C246.293 13.0281 246.413 14.3342 246.438 15.644C246.444 16.2304 246.444 16.8604 246.444 17.4873C246.46 18.2639 246.46 19.003 246.46 19.7482V63.0881C246.46 63.8404 246.46 64.5745 246.444 65.3147C246.444 65.9881 246.444 66.605 246.436 67.2399C246.411 68.5263 246.293 69.8091 246.082 71.0782C245.888 72.2815 245.511 73.4479 244.963 74.5365C244.418 75.5976 243.708 76.5661 242.86 77.4061C242.014 78.2629 241.036 78.9779 239.962 79.5235C238.875 80.0743 237.71 80.4581 236.508 80.662C235.228 80.8711 233.934 80.984 232.637 80.9998C232.031 81.0139 231.396 81.0219 230.779 81.0219L228.534 81.0261L17.9509 81.0219Z" fill="black"/>
<path d="M51.7553 42.0397C51.7776 40.3113 52.2367 38.6166 53.0899 37.1132C53.9432 35.6099 55.1628 34.3468 56.6354 33.4415C55.6999 32.1055 54.4658 31.006 53.031 30.2303C51.5963 29.4547 50.0005 29.0243 48.3703 28.9733C44.8929 28.6083 41.5217 31.0541 39.7496 31.0541C37.9433 31.0541 35.215 29.0095 32.277 29.07C30.3767 29.1314 28.5246 29.684 26.9013 30.674C25.2781 31.664 23.9389 33.0575 23.0143 34.719C19.0093 41.653 21.9967 51.8437 25.8332 57.4486C27.7526 60.1932 29.9959 63.259 32.9312 63.1503C35.8036 63.0311 36.8764 61.3186 40.3436 61.3186C43.7786 61.3186 44.7851 63.1503 47.7799 63.0811C50.8621 63.0311 52.8041 60.3244 54.6562 57.5538C56.0353 55.5982 57.0965 53.4368 57.8006 51.1497C56.0099 50.3923 54.4818 49.1246 53.4068 47.5046C52.3318 45.8846 51.7574 43.984 51.7553 42.0397Z" fill="white"/>
<path d="M46.0985 25.287C47.7791 23.2696 48.607 20.6766 48.4065 18.0585C45.839 18.3282 43.4674 19.5553 41.7641 21.4953C40.9314 22.4431 40.2935 23.5457 39.8872 24.74C39.4808 25.9344 39.3138 27.1972 39.3957 28.4562C40.6799 28.4694 41.9504 28.1911 43.1114 27.6421C44.2724 27.0932 45.2938 26.2879 46.0985 25.287Z" fill="white"/>
<path d="M88.0641 56.2018H78.262L75.908 63.1525H71.7562L81.0406 37.4368H85.3542L94.6386 63.1525H90.416L88.0641 56.2018ZM79.2772 52.9944H87.0469L83.2167 41.714H83.1095L79.2772 52.9944Z" fill="white"/>
<path d="M114.69 53.7797C114.69 59.6059 111.571 63.3492 106.865 63.3492C105.673 63.4116 104.488 63.137 103.444 62.5568C102.401 61.9767 101.542 61.1145 100.966 60.069H100.877V69.3554H97.0289V44.4043H100.754V47.5227H100.825C101.427 46.4821 102.301 45.6244 103.352 45.0408C104.403 44.4571 105.593 44.1694 106.795 44.2081C111.553 44.2081 114.69 47.9696 114.69 53.7797ZM110.734 53.7797C110.734 49.9838 108.772 47.4883 105.779 47.4883C102.839 47.4883 100.861 50.0364 100.861 53.7797C100.861 57.5573 102.839 60.0872 105.779 60.0872C108.772 60.0872 110.734 57.6099 110.734 53.7797Z" fill="white"/>
<path d="M135.325 53.7797C135.325 59.6059 132.207 63.3492 127.501 63.3492C126.309 63.4115 125.123 63.1369 124.08 62.5568C123.037 61.9767 122.178 61.1145 121.602 60.069H121.513V69.3554H117.664V44.4043H121.389V47.5226H121.46C122.063 46.4821 122.936 45.6244 123.987 45.0408C125.039 44.4571 126.228 44.1693 127.43 44.2081C132.189 44.2081 135.325 47.9696 135.325 53.7797ZM131.37 53.7797C131.37 49.9838 129.408 47.4883 126.415 47.4883C123.475 47.4883 121.497 50.0364 121.497 53.7797C121.497 57.5573 123.475 60.0872 126.415 60.0872C129.408 60.0872 131.37 57.6099 131.37 53.7797Z" fill="white"/>
<path d="M148.964 55.9877C149.249 58.5378 151.726 60.2122 155.111 60.2122C158.355 60.2122 160.689 58.5378 160.689 56.2384C160.689 54.2424 159.281 53.0472 155.949 52.2282L152.616 51.4253C147.894 50.2847 145.702 48.0764 145.702 44.4928C145.702 40.0559 149.568 37.0083 155.059 37.0083C160.493 37.0083 164.218 40.0559 164.343 44.4928H160.458C160.226 41.9265 158.104 40.3775 155.004 40.3775C151.904 40.3775 149.783 41.9448 149.783 44.2259C149.783 46.044 151.138 47.1138 154.452 47.9327L157.285 48.6284C162.562 49.8761 164.754 51.9956 164.754 55.757C164.754 60.568 160.921 63.5813 154.826 63.5813C149.123 63.5813 145.273 60.6388 145.024 55.9875L148.964 55.9877Z" fill="white"/>
<path d="M173.059 39.9672V44.4041H176.625V47.4517H173.059V57.7877C173.059 59.3934 173.773 60.1416 175.341 60.1416C175.764 60.1343 176.186 60.1045 176.606 60.0526V63.082C175.902 63.2137 175.186 63.2733 174.469 63.26C170.673 63.26 169.193 61.8342 169.193 58.1981V47.4517H166.467V44.4041H169.193V39.9672H173.059Z" fill="white"/>
<path d="M178.69 53.7795C178.69 47.8805 182.164 44.1736 187.582 44.1736C193.018 44.1736 196.476 47.8804 196.476 53.7795C196.476 59.6948 193.036 63.3854 187.582 63.3854C182.129 63.3854 178.69 59.6947 178.69 53.7795ZM192.554 53.7795C192.554 49.7329 190.7 47.3446 187.582 47.3446C184.463 47.3446 182.611 49.7511 182.611 53.7795C182.611 57.8423 184.463 60.2125 187.582 60.2125C190.7 60.2125 192.554 57.8423 192.554 53.7795Z" fill="white"/>
<path d="M199.649 44.4041H203.319V47.5953H203.408C203.656 46.5986 204.24 45.7178 205.062 45.1009C205.883 44.4841 206.892 44.1687 207.918 44.2079C208.361 44.2064 208.804 44.2545 209.236 44.3515V47.9512C208.677 47.7801 208.092 47.7016 207.507 47.7186C206.948 47.696 206.391 47.7945 205.873 48.0076C205.356 48.2207 204.891 48.5432 204.51 48.953C204.129 49.3628 203.841 49.8501 203.666 50.3817C203.491 50.9132 203.434 51.4762 203.497 52.0322V63.1528H199.649L199.649 44.4041Z" fill="white"/>
<path d="M226.98 57.6462C226.462 61.0497 223.148 63.3854 218.907 63.3854C213.453 63.3854 210.067 59.7311 210.067 53.8685C210.067 47.9876 213.471 44.1736 218.745 44.1736C223.932 44.1736 227.194 47.7369 227.194 53.4216V54.7401H213.952V54.9727C213.891 55.6627 213.978 56.3578 214.206 57.0118C214.434 57.6659 214.799 58.2639 215.276 58.7662C215.753 59.2685 216.331 59.6635 216.973 59.9251C217.614 60.1866 218.304 60.3087 218.996 60.2832C219.905 60.3684 220.818 60.1578 221.598 59.6827C222.378 59.2075 222.984 58.4933 223.326 57.6461L226.98 57.6462ZM213.97 52.0504H223.344C223.378 51.43 223.284 50.8092 223.068 50.2268C222.851 49.6445 222.516 49.1132 222.084 48.6664C221.652 48.2196 221.133 47.8669 220.558 47.6304C219.984 47.3938 219.366 47.2786 218.745 47.292C218.118 47.2882 217.497 47.4086 216.917 47.6463C216.337 47.8839 215.81 48.234 215.366 48.6764C214.922 49.1188 214.571 49.6447 214.331 50.2238C214.091 50.8029 213.969 51.4237 213.97 52.0504Z" fill="white"/>
<path d="M78.7949 18.08C79.6017 18.0221 80.4113 18.144 81.1653 18.4369C81.9194 18.7298 82.599 19.1863 83.1552 19.7737C83.7114 20.361 84.1303 21.0645 84.3817 21.8333C84.6331 22.6022 84.7107 23.4172 84.609 24.2197C84.609 28.1672 82.4755 30.4363 78.7949 30.4363H74.3317V18.08H78.7949ZM76.2508 28.6889H78.5805C79.157 28.7234 79.734 28.6288 80.2694 28.4122C80.8048 28.1955 81.2851 27.8623 81.6755 27.4366C82.0658 27.0109 82.3563 26.5035 82.5258 25.9514C82.6954 25.3992 82.7396 24.8163 82.6554 24.2449C82.7335 23.6757 82.6848 23.0964 82.5126 22.5483C82.3405 22.0002 82.0493 21.497 81.6598 21.0747C81.2704 20.6524 80.7923 20.3215 80.26 20.1056C79.7276 19.8898 79.1541 19.7943 78.5805 19.8262H76.2508V28.6889Z" fill="white"/>
<path d="M86.777 25.7699C86.7183 25.1571 86.7884 24.5388 86.9828 23.9547C87.1771 23.3706 87.4914 22.8335 87.9054 22.378C88.3195 21.9224 88.8242 21.5584 89.3871 21.3094C89.9501 21.0603 90.5589 20.9316 91.1745 20.9316C91.7901 20.9316 92.3989 21.0603 92.9618 21.3094C93.5248 21.5584 94.0295 21.9224 94.4435 22.378C94.8576 22.8335 95.1718 23.3706 95.3662 23.9547C95.5605 24.5388 95.6306 25.1571 95.572 25.7699C95.6317 26.3833 95.5624 27.0025 95.3686 27.5875C95.1748 28.1726 94.8607 28.7106 94.4466 29.1671C94.0324 29.6235 93.5273 29.9883 92.9638 30.2379C92.4003 30.4875 91.7908 30.6164 91.1745 30.6164C90.5581 30.6164 89.9486 30.4875 89.3851 30.2379C88.8216 29.9883 88.3165 29.6235 87.9024 29.1671C87.4882 28.7106 87.1741 28.1726 86.9803 27.5875C86.7865 27.0025 86.7172 26.3833 86.777 25.7699ZM93.6791 25.7699C93.6791 23.7486 92.771 22.5666 91.1775 22.5666C89.5779 22.5666 88.678 23.7486 88.678 25.7699C88.678 27.8074 89.5779 28.9803 91.1775 28.9803C92.7711 28.9803 93.6791 27.7993 93.6791 25.7699Z" fill="white"/>
<path d="M107.263 30.4366H105.354L103.427 23.5689H103.281L101.362 30.4366H99.471L96.9006 21.1118H98.7672L100.438 28.2272H100.575L102.492 21.1118H104.258L106.175 28.2272H106.321L107.983 21.1118H109.823L107.263 30.4366Z" fill="white"/>
<path d="M111.985 21.1122H113.756V22.5935H113.894C114.127 22.0614 114.521 21.6154 115.02 21.3176C115.518 21.0198 116.098 20.8851 116.677 20.9322C117.13 20.898 117.586 20.9665 118.01 21.1323C118.433 21.2982 118.814 21.5573 119.124 21.8903C119.434 22.2234 119.665 22.622 119.8 23.0565C119.935 23.491 119.971 23.9503 119.904 24.4004V30.4369H118.064V24.8625C118.064 23.364 117.413 22.6188 116.052 22.6188C115.744 22.6044 115.436 22.6568 115.15 22.7725C114.864 22.8881 114.607 23.0641 114.395 23.2886C114.184 23.513 114.023 23.7806 113.925 24.0728C113.827 24.3651 113.793 24.6752 113.825 24.9818V30.437H111.985L111.985 21.1122Z" fill="white"/>
<path d="M122.837 17.4717H124.677V30.4367H122.837V17.4717Z" fill="white"/>
<path d="M127.235 25.7701C127.177 25.1572 127.247 24.5389 127.441 23.9548C127.635 23.3706 127.95 22.8336 128.364 22.378C128.778 21.9224 129.283 21.5585 129.846 21.3094C130.409 21.0603 131.017 20.9316 131.633 20.9316C132.249 20.9316 132.858 21.0603 133.421 21.3094C133.984 21.5585 134.488 21.9224 134.902 22.378C135.316 22.8336 135.631 23.3706 135.825 23.9548C136.02 24.5389 136.09 25.1572 136.031 25.7701C136.091 26.3835 136.021 27.0027 135.828 27.5877C135.634 28.1728 135.32 28.7108 134.905 29.1673C134.491 29.6237 133.986 29.9884 133.423 30.238C132.859 30.4876 132.249 30.6165 131.633 30.6165C131.017 30.6165 130.407 30.4876 129.844 30.238C129.28 29.9884 128.775 29.6237 128.361 29.1673C127.947 28.7108 127.633 28.1728 127.439 27.5877C127.245 27.0027 127.175 26.3835 127.235 25.7701ZM134.137 25.7701C134.137 23.7488 133.229 22.5668 131.636 22.5668C130.036 22.5668 129.136 23.7488 129.136 25.7701C129.136 27.8076 130.036 28.9805 131.636 28.9805C133.229 28.9805 134.137 27.7994 134.137 25.7701Z" fill="white"/>
<path d="M137.969 27.7994C137.969 26.1208 139.218 25.1532 141.437 25.0157L143.963 24.8701V24.0652C143.963 23.0803 143.311 22.5242 142.054 22.5242C141.026 22.5242 140.314 22.9014 140.11 23.5606H138.328C138.517 21.959 140.023 20.9316 142.138 20.9316C144.476 20.9316 145.795 22.0955 145.795 24.0652V30.4365H144.023V29.126H143.878C143.582 29.5961 143.167 29.9793 142.675 30.2365C142.183 30.4937 141.631 30.6157 141.077 30.5901C140.685 30.6308 140.29 30.589 139.915 30.4675C139.541 30.3459 139.196 30.1473 138.903 29.8843C138.611 29.6214 138.376 29.3 138.215 28.9409C138.054 28.5818 137.97 28.1929 137.969 27.7994ZM143.963 27.0026V26.223L141.685 26.3686C140.401 26.4545 139.819 26.8913 139.819 27.7134C139.819 28.5527 140.547 29.041 141.548 29.041C141.841 29.0707 142.138 29.0411 142.419 28.954C142.701 28.8668 142.962 28.7239 143.187 28.5337C143.413 28.3435 143.597 28.1099 143.731 27.8469C143.864 27.5839 143.943 27.2967 143.963 27.0026Z" fill="white"/>
<path d="M148.213 25.7702C148.213 22.8237 149.728 20.9571 152.084 20.9571C152.667 20.9303 153.245 21.0699 153.752 21.3596C154.258 21.6493 154.671 22.0771 154.944 22.5931H155.081V17.4717H156.921V30.4366H155.158V28.9634H155.012C154.719 29.4759 154.291 29.8984 153.775 30.1852C153.259 30.472 152.674 30.6121 152.084 30.5903C149.712 30.5904 148.213 28.7238 148.213 25.7702ZM150.114 25.7702C150.114 27.748 151.047 28.9382 152.606 28.9382C154.157 28.9382 155.116 27.7309 155.116 25.7783C155.116 23.8349 154.147 22.6104 152.606 22.6104C151.057 22.6104 150.114 23.8086 150.114 25.7702Z" fill="white"/>
<path d="M164.535 25.7699C164.477 25.1571 164.547 24.5388 164.741 23.9547C164.936 23.3706 165.25 22.8335 165.664 22.378C166.078 21.9224 166.583 21.5584 167.146 21.3094C167.709 21.0603 168.317 20.9316 168.933 20.9316C169.549 20.9316 170.157 21.0603 170.72 21.3094C171.283 21.5584 171.788 21.9224 172.202 22.378C172.616 22.8335 172.93 23.3706 173.125 23.9547C173.319 24.5388 173.389 25.1571 173.33 25.7699C173.39 26.3833 173.321 27.0025 173.127 27.5875C172.933 28.1726 172.619 28.7106 172.205 29.1671C171.791 29.6235 171.286 29.9883 170.722 30.2379C170.159 30.4875 169.549 30.6164 168.933 30.6164C168.317 30.6164 167.707 30.4875 167.144 30.2379C166.58 29.9883 166.075 29.6235 165.661 29.1671C165.247 28.7106 164.933 28.1726 164.739 27.5875C164.545 27.0025 164.476 26.3833 164.535 25.7699ZM171.438 25.7699C171.438 23.7486 170.53 22.5666 168.936 22.5666C167.336 22.5666 166.436 23.7486 166.436 25.7699C166.436 27.8074 167.336 28.9803 168.936 28.9803C170.53 28.9803 171.438 27.7993 171.438 25.7699Z" fill="white"/>
<path d="M175.8 21.1122H177.571V22.5935H177.709C177.942 22.0614 178.335 21.6154 178.834 21.3176C179.333 21.0198 179.912 20.8851 180.491 20.9322C180.945 20.898 181.401 20.9665 181.824 21.1323C182.248 21.2982 182.629 21.5573 182.939 21.8903C183.249 22.2234 183.48 22.622 183.615 23.0565C183.75 23.491 183.786 23.9503 183.719 24.4004V30.4369H181.879V24.8625C181.879 23.364 181.228 22.6188 179.866 22.6188C179.558 22.6044 179.251 22.6568 178.965 22.7725C178.679 22.8881 178.422 23.0641 178.21 23.2886C177.999 23.513 177.838 23.7806 177.74 24.0728C177.641 24.3651 177.607 24.6752 177.64 24.9818V30.437H175.8V21.1122Z" fill="white"/>
<path d="M194.118 18.79V21.1541H196.138V22.7042H194.118V27.4991C194.118 28.4759 194.52 28.9036 195.436 28.9036C195.671 28.9028 195.905 28.8886 196.138 28.8611V30.394C195.807 30.4531 195.473 30.4846 195.137 30.488C193.09 30.488 192.275 29.7681 192.275 27.9703V22.7041H190.795V21.154H192.275V18.79H194.118Z" fill="white"/>
<path d="M198.652 17.4717H200.476V22.6104H200.621C200.866 22.0733 201.27 21.6248 201.779 21.3259C202.288 21.027 202.876 20.8922 203.465 20.9399C203.916 20.9154 204.367 20.9907 204.786 21.1606C205.205 21.3305 205.581 21.5908 205.888 21.9228C206.195 22.2548 206.424 22.6505 206.561 23.0815C206.697 23.5125 206.736 23.9683 206.676 24.4163V30.4367H204.834V24.8703C204.834 23.3808 204.14 22.6265 202.84 22.6265C202.524 22.6006 202.205 22.6441 201.908 22.7539C201.61 22.8638 201.34 23.0374 201.116 23.2626C200.893 23.4877 200.721 23.7591 200.613 24.0575C200.505 24.356 200.464 24.6745 200.492 24.9906V30.4366H198.652L198.652 17.4717Z" fill="white"/>
<path d="M217.407 27.9188C217.156 28.7711 216.615 29.5083 215.876 30.0014C215.137 30.4946 214.249 30.7123 213.366 30.6166C212.752 30.6328 212.141 30.5151 211.577 30.2718C211.012 30.0284 210.508 29.6651 210.098 29.2072C209.688 28.7492 209.383 28.2076 209.203 27.6198C209.024 27.0321 208.974 26.4123 209.058 25.8035C208.977 25.1929 209.027 24.5718 209.206 23.9822C209.385 23.3927 209.689 22.8486 210.097 22.3866C210.504 21.9247 211.006 21.5557 211.569 21.3047C212.132 21.0537 212.742 20.9265 213.358 20.9318C215.952 20.9318 217.518 22.7044 217.518 25.6326V26.2747H210.933V26.3779C210.904 26.7201 210.947 27.0645 211.059 27.3891C211.171 27.7137 211.35 28.0113 211.584 28.2628C211.818 28.5143 212.102 28.7142 212.417 28.8497C212.733 28.9851 213.073 29.0531 213.416 29.0492C213.857 29.1021 214.303 29.0228 214.698 28.8215C215.093 28.6202 215.419 28.306 215.635 27.9188L217.407 27.9188ZM210.933 24.9137H215.643C215.666 24.6007 215.624 24.2864 215.518 23.9908C215.413 23.6953 215.246 23.4251 215.03 23.1976C214.814 22.9701 214.553 22.7903 214.263 22.6699C213.973 22.5494 213.661 22.4909 213.348 22.4981C213.029 22.4941 212.714 22.5538 212.419 22.6738C212.124 22.7938 211.856 22.9716 211.631 23.1968C211.406 23.4219 211.228 23.6898 211.108 23.9847C210.989 24.2795 210.929 24.5954 210.933 24.9137Z" fill="white"/>
</g>
<defs>
<clipPath id="clip0_1561_9249">
<rect width="247.805" height="82.8335" fill="white" transform="translate(0.463074)"/>
</clipPath>
</defs>
</svg>
