<svg width="283" height="303" viewBox="0 0 283 303" fill="none" xmlns="http://www.w3.org/2000/svg">
<path d="M165.655 278.747L193.783 274.776C192.881 289.653 189.551 296.35 181.478 297.562C173.404 298.773 168.462 294.232 165.655 278.747Z" fill="white" stroke="#011240" stroke-width="8.76081"/>
<path d="M174.922 282.098L189.021 279.871C188.575 288.168 185.857 292.423 181.872 293.099C177.886 293.775 176.308 290.734 174.922 282.098Z" fill="#439D01"/>
<path d="M173.543 282.001L186.049 280.22C185.647 288.482 184.606 292.428 181.002 293.101C177.399 293.774 174.796 290.601 173.543 282.001Z" fill="#8ED219"/>
<path d="M114.173 278.747L86.045 274.776C86.9471 289.653 90.2773 296.35 98.3507 297.562C106.424 298.773 111.367 294.232 114.173 278.747Z" fill="#439D01" stroke="#011240" stroke-width="8.76081"/>
<path d="M104.906 282.098L90.8078 279.871C91.2531 288.168 93.9715 292.423 97.9568 293.099C101.942 293.775 103.521 290.734 104.906 282.098Z" fill="white"/>
<path d="M105.502 282.001L93.521 280.22C93.9068 288.482 94.9035 292.428 98.3559 293.101C101.808 293.774 104.302 290.601 105.502 282.001Z" fill="#8ED219"/>
<path d="M254.357 133.295C260.075 126.514 270.208 125.652 276.989 131.37C283.771 137.088 284.633 147.221 278.914 154.003L254.357 133.295ZM266.636 143.649C278.914 154.003 278.913 154.004 278.912 154.005C278.912 154.006 278.911 154.007 278.91 154.008C278.909 154.009 278.907 154.011 278.905 154.013C278.902 154.018 278.898 154.023 278.893 154.029C278.883 154.04 278.871 154.055 278.856 154.072C278.826 154.107 278.787 154.154 278.738 154.211C278.639 154.326 278.503 154.486 278.331 154.685C277.988 155.082 277.501 155.64 276.897 156.32C275.693 157.673 273.996 159.539 272.007 161.601C268.273 165.473 262.623 170.977 256.959 174.733L239.206 147.962C241.775 146.258 245.402 142.913 248.886 139.301C250.506 137.62 251.904 136.085 252.892 134.974C253.384 134.421 253.768 133.98 254.021 133.687C254.147 133.54 254.241 133.431 254.298 133.365C254.326 133.331 254.346 133.308 254.356 133.297C254.361 133.291 254.363 133.288 254.363 133.287C254.364 133.287 254.363 133.288 254.362 133.289C254.361 133.29 254.361 133.291 254.36 133.292C254.359 133.292 254.359 133.293 254.358 133.293C254.358 133.294 254.357 133.295 266.636 143.649ZM256.959 174.733C251.224 178.536 245.868 180.604 241.714 181.722C239.642 182.279 237.868 182.601 236.49 182.786C235.799 182.879 235.206 182.939 234.72 182.976C234.477 182.995 234.26 183.009 234.072 183.018C233.978 183.023 233.891 183.027 233.811 183.03C233.771 183.032 233.732 183.033 233.696 183.034C233.678 183.035 233.66 183.035 233.642 183.036C233.634 183.036 233.625 183.036 233.617 183.036C233.613 183.037 233.606 183.037 233.604 183.037C233.598 183.037 233.592 183.037 233.175 166.981C232.758 150.925 232.752 150.925 232.745 150.925C232.743 150.925 232.737 150.926 232.733 150.926C232.725 150.926 232.717 150.926 232.71 150.926C232.694 150.927 232.678 150.927 232.663 150.928C232.633 150.929 232.605 150.93 232.578 150.931C232.523 150.933 232.475 150.935 232.431 150.937C232.345 150.942 232.28 150.946 232.235 150.95C232.147 150.956 232.139 150.96 232.203 150.951C232.333 150.933 232.742 150.87 233.368 150.702C234.609 150.368 236.707 149.619 239.206 147.962L256.959 174.733Z" fill="#011240"/>
<path d="M260.496 138.472C263.355 135.081 268.422 134.651 271.812 137.51C275.203 140.369 275.634 145.435 272.775 148.826L260.496 138.472ZM266.636 143.649C272.775 148.826 272.774 148.827 272.774 148.827C272.774 148.827 272.773 148.828 272.773 148.829C272.772 148.83 272.771 148.831 272.77 148.832C272.767 148.835 272.764 148.839 272.76 148.843C272.753 148.852 272.743 148.864 272.731 148.878C272.706 148.907 272.672 148.948 272.628 148.999C272.54 149.102 272.414 149.249 272.254 149.435C271.933 149.807 271.472 150.335 270.896 150.983C269.746 152.276 268.124 154.059 266.227 156.026C262.555 159.833 257.411 164.797 252.521 168.04L243.644 154.655C246.987 152.438 251.12 148.553 254.666 144.876C256.379 143.1 257.851 141.482 258.893 140.31C259.413 139.725 259.823 139.255 260.099 138.936C260.236 138.777 260.34 138.655 260.408 138.576C260.441 138.537 260.466 138.508 260.481 138.49C260.488 138.482 260.493 138.476 260.496 138.473C260.497 138.471 260.498 138.47 260.498 138.47C260.498 138.47 260.498 138.47 260.497 138.471C260.497 138.471 260.497 138.471 260.497 138.471C260.497 138.472 260.496 138.472 266.636 143.649ZM252.521 168.04C247.595 171.307 243.053 173.045 239.627 173.967C237.917 174.427 236.484 174.684 235.418 174.828C234.884 174.899 234.441 174.943 234.099 174.97C233.928 174.983 233.782 174.992 233.662 174.998C233.602 175.001 233.549 175.003 233.502 175.005C233.479 175.006 233.458 175.007 233.438 175.008C233.428 175.008 233.418 175.008 233.409 175.008C233.405 175.009 233.4 175.009 233.396 175.009C233.394 175.009 233.391 175.009 233.39 175.009C233.386 175.009 233.383 175.009 233.175 166.981C232.966 158.953 232.963 158.953 232.96 158.953C232.959 158.953 232.956 158.953 232.954 158.953C232.95 158.953 232.946 158.954 232.943 158.954C232.935 158.954 232.928 158.954 232.922 158.954C232.908 158.955 232.896 158.955 232.886 158.956C232.865 158.956 232.85 158.957 232.842 158.958C232.824 158.958 232.829 158.958 232.856 158.956C232.911 158.952 233.054 158.939 233.275 158.91C233.717 158.85 234.467 158.723 235.454 158.457C237.424 157.927 240.336 156.848 243.644 154.655L252.521 168.04Z" fill="white"/>
<path d="M262.657 140.388C264.977 137.597 269.12 137.215 271.91 139.534C274.701 141.854 275.083 145.997 272.764 148.787L262.657 140.388ZM267.711 144.587C272.764 148.787 272.763 148.788 272.763 148.788C272.763 148.789 272.762 148.789 272.762 148.79C272.761 148.791 272.76 148.792 272.759 148.793C272.757 148.796 272.754 148.799 272.75 148.803C272.744 148.812 272.734 148.823 272.722 148.837C272.699 148.865 272.665 148.905 272.622 148.956C272.536 149.058 272.413 149.205 272.255 149.39C271.938 149.762 271.483 150.292 270.913 150.942C269.775 152.241 268.169 154.032 266.292 156.006C262.637 159.85 257.593 164.78 252.849 167.972L245.513 157.068C248.992 154.728 253.213 150.691 256.767 146.952C258.495 145.135 259.979 143.48 261.031 142.28C261.555 141.682 261.969 141.2 262.249 140.872C262.388 140.707 262.494 140.582 262.564 140.5C262.598 140.458 262.624 140.428 262.639 140.409C262.647 140.4 262.653 140.393 262.656 140.39C262.657 140.388 262.658 140.387 262.658 140.386C262.659 140.386 262.659 140.386 262.658 140.386C262.658 140.386 262.658 140.387 262.658 140.387C262.658 140.387 262.657 140.388 267.711 144.587ZM252.849 167.972C248.074 171.184 243.681 172.887 240.383 173.787C238.737 174.237 237.364 174.486 236.352 174.624C235.845 174.694 235.428 174.735 235.111 174.76C234.952 174.773 234.818 174.781 234.71 174.787C234.656 174.789 234.609 174.792 234.568 174.793C234.547 174.794 234.529 174.795 234.512 174.795C234.503 174.795 234.495 174.796 234.487 174.796C234.484 174.796 234.48 174.796 234.476 174.796C234.474 174.796 234.472 174.796 234.471 174.796C234.468 174.796 234.466 174.796 234.293 168.228C234.119 161.66 234.117 161.66 234.114 161.66C234.114 161.66 234.111 161.66 234.11 161.66C234.106 161.66 234.103 161.66 234.1 161.66C234.094 161.661 234.088 161.661 234.083 161.661C234.073 161.661 234.064 161.662 234.056 161.662C234.041 161.662 234.032 161.663 234.029 161.663C234.023 161.663 234.04 161.663 234.079 161.659C234.159 161.653 234.326 161.638 234.573 161.604C235.067 161.537 235.875 161.396 236.923 161.11C239.014 160.539 242.065 159.388 245.513 157.068L252.849 167.972Z" fill="#439D01"/>
<path d="M264.526 146.172C266.581 147.743 269.486 147.072 271.106 144.954C272.726 142.835 273.116 140.491 271.059 138.92C269.005 137.349 264.81 137.742 263.191 139.86C261.571 141.978 262.472 144.602 264.526 146.172Z" fill="#8ED219"/>
<path d="M263.04 139.939C264.687 137.953 267.633 137.679 269.619 139.326C271.605 140.974 271.879 143.92 270.231 145.906L263.04 139.939ZM266.636 142.922C270.231 145.906 270.231 145.906 270.231 145.906C270.231 145.907 270.23 145.907 270.23 145.907C270.229 145.908 270.229 145.909 270.228 145.91C270.226 145.913 270.223 145.916 270.22 145.919C270.214 145.927 270.205 145.937 270.194 145.95C270.172 145.976 270.141 146.014 270.101 146.062C270.02 146.159 269.902 146.298 269.752 146.475C269.45 146.83 269.015 147.337 268.469 147.961C267.379 149.207 265.84 150.926 264.043 152.82C260.519 156.533 255.743 161.197 251.313 164.182L246.091 156.433C249.62 154.054 253.811 150.026 257.264 146.387C258.955 144.605 260.408 142.983 261.436 141.808C261.95 141.221 262.356 140.747 262.631 140.423C262.769 140.261 262.874 140.137 262.943 140.055C262.977 140.013 263.003 139.983 263.019 139.963C263.027 139.954 263.033 139.947 263.037 139.942C263.038 139.94 263.039 139.939 263.04 139.938C263.04 139.938 263.04 139.938 263.04 139.938C263.04 139.938 263.04 139.938 263.04 139.938C263.04 139.938 263.04 139.939 266.636 142.922ZM251.313 164.182C246.862 167.182 242.782 168.763 239.745 169.593C238.228 170.008 236.972 170.236 236.058 170.361C235.601 170.423 235.229 170.46 234.953 170.482C234.814 170.493 234.699 170.5 234.61 170.505C234.565 170.507 234.526 170.509 234.494 170.51C234.477 170.511 234.463 170.511 234.45 170.512C234.443 170.512 234.437 170.512 234.432 170.512C234.429 170.513 234.426 170.513 234.424 170.513C234.422 170.513 234.42 170.513 234.42 170.513C234.418 170.513 234.416 170.513 234.293 165.842C234.169 161.171 234.168 161.171 234.166 161.171C234.165 161.171 234.163 161.171 234.162 161.171C234.16 161.172 234.158 161.172 234.156 161.172C234.152 161.172 234.148 161.172 234.145 161.172C234.138 161.172 234.133 161.172 234.129 161.173C234.122 161.173 234.12 161.173 234.125 161.173C234.133 161.172 234.165 161.171 234.218 161.166C234.325 161.158 234.519 161.14 234.791 161.102C235.336 161.028 236.19 160.878 237.28 160.579C239.458 159.984 242.583 158.797 246.091 156.433L251.313 164.182Z" fill="#8ED219"/>
<path d="M28.6436 132.132C22.9253 125.351 12.7923 124.489 6.01095 130.207C-0.770454 135.925 -1.6323 146.058 4.08596 152.84L28.6436 132.132ZM16.3648 142.486C4.08596 152.84 4.08688 152.841 4.08784 152.842C4.08821 152.842 4.08921 152.844 4.08995 152.845C4.09144 152.846 4.09309 152.848 4.0949 152.85C4.09852 152.855 4.10277 152.86 4.10766 152.865C4.11744 152.877 4.12975 152.892 4.14454 152.909C4.17411 152.944 4.21364 152.99 4.26272 153.048C4.36087 153.163 4.49743 153.322 4.6693 153.521C5.01276 153.919 5.49905 154.477 6.10341 155.156C7.30733 156.51 9.00445 158.376 10.993 160.437C14.7277 164.31 20.377 169.814 26.0413 173.57L43.7948 146.799C41.2253 145.095 37.598 141.749 34.1144 138.138C32.4939 136.457 31.0966 134.922 30.1083 133.81C29.6165 133.257 29.2323 132.817 28.9792 132.524C28.8529 132.377 28.7597 132.268 28.7026 132.202C28.6741 132.168 28.6547 132.145 28.6447 132.133C28.6397 132.128 28.6371 132.124 28.6369 132.124C28.6368 132.124 28.6373 132.125 28.6384 132.126C28.639 132.127 28.6397 132.128 28.6405 132.129C28.641 132.129 28.6417 132.13 28.642 132.13C28.6428 132.131 28.6436 132.132 16.3648 142.486ZM26.0413 173.57C31.7767 177.373 37.1326 179.441 41.2862 180.559C43.3585 181.116 45.1321 181.438 46.5108 181.623C47.2009 181.716 47.7946 181.776 48.2804 181.813C48.5235 181.832 48.7399 181.846 48.9283 181.855C49.0225 181.86 49.1097 181.864 49.1898 181.867C49.2298 181.869 49.2681 181.87 49.3046 181.871C49.3228 181.872 49.3406 181.872 49.3579 181.873C49.3666 181.873 49.3751 181.873 49.3836 181.873C49.3878 181.874 49.394 181.874 49.3961 181.874C49.4024 181.874 49.4085 181.874 49.8256 165.818C50.2426 149.762 50.2488 149.762 50.2549 149.762C50.2569 149.762 50.263 149.762 50.267 149.763C50.275 149.763 50.283 149.763 50.2908 149.763C50.3065 149.764 50.3219 149.764 50.3369 149.765C50.3669 149.766 50.3954 149.767 50.4226 149.768C50.4769 149.77 50.5257 149.772 50.569 149.774C50.6556 149.779 50.7206 149.783 50.765 149.787C50.8538 149.793 50.8618 149.796 50.7975 149.788C50.6676 149.77 50.2582 149.707 49.6328 149.539C48.3911 149.205 46.2932 148.456 43.7948 146.799L26.0413 173.57Z" fill="#011240"/>
<path d="M22.5042 137.309C19.6451 133.918 14.5786 133.487 11.1879 136.347C7.79716 139.206 7.36624 144.272 10.2254 147.663L22.5042 137.309ZM16.3648 142.486C10.2254 147.663 10.2258 147.663 10.2264 147.664C10.2266 147.664 10.2271 147.665 10.2276 147.666C10.2285 147.667 10.2296 147.668 10.2308 147.669C10.2332 147.672 10.2363 147.676 10.24 147.68C10.2474 147.689 10.2572 147.701 10.2696 147.715C10.2943 147.744 10.3288 147.785 10.3727 147.836C10.4606 147.939 10.5863 148.086 10.7468 148.272C11.0676 148.643 11.5284 149.172 12.1046 149.82C13.2546 151.113 14.8768 152.896 16.7734 154.862C20.4452 158.67 25.5891 163.634 30.4797 166.877L39.3564 153.492C36.0132 151.274 31.8804 147.39 28.3341 143.713C26.6215 141.937 25.1493 140.319 24.1071 139.147C23.5872 138.562 23.1774 138.092 22.9018 137.773C22.764 137.614 22.66 137.492 22.5927 137.413C22.559 137.374 22.5346 137.345 22.5197 137.327C22.5122 137.319 22.5072 137.313 22.5046 137.31C22.5033 137.308 22.5026 137.307 22.5025 137.307C22.5025 137.307 22.5026 137.307 22.5029 137.308C22.503 137.308 22.5034 137.308 22.5034 137.308C22.5038 137.309 22.5042 137.309 16.3648 142.486ZM30.4797 166.877C35.4058 170.144 39.9472 171.882 43.3728 172.804C45.0834 173.264 46.516 173.521 47.5825 173.665C48.1161 173.736 48.5594 173.78 48.9016 173.807C49.0728 173.82 49.2188 173.829 49.3384 173.835C49.3983 173.838 49.4515 173.84 49.498 173.842C49.5212 173.843 49.5428 173.844 49.5626 173.844C49.5726 173.845 49.5821 173.845 49.5911 173.845C49.5957 173.845 49.6001 173.846 49.6044 173.846C49.6066 173.846 49.6097 173.846 49.6108 173.846C49.614 173.846 49.6171 173.846 49.8256 165.818C50.0341 157.79 50.0372 157.79 50.0402 157.79C50.0412 157.79 50.0442 157.79 50.0461 157.79C50.05 157.79 50.0539 157.79 50.0576 157.791C50.065 157.791 50.0721 157.791 50.0788 157.791C50.0922 157.792 50.104 157.792 50.1144 157.793C50.1351 157.793 50.1499 157.794 50.1588 157.794C50.1767 157.795 50.1713 157.795 50.1439 157.793C50.089 157.789 49.9465 157.776 49.7258 157.747C49.2837 157.687 48.5333 157.559 47.5462 157.294C45.5765 156.764 42.6641 155.685 39.3564 153.492L30.4797 166.877Z" fill="white"/>
<path d="M20.3425 139.225C18.023 136.434 13.8803 136.052 11.0895 138.372C8.29876 140.691 7.91677 144.834 10.2363 147.625L20.3425 139.225ZM15.2894 143.425C10.2363 147.625 10.2367 147.625 10.2371 147.626C10.2373 147.626 10.2378 147.626 10.2382 147.627C10.239 147.628 10.2399 147.629 10.241 147.63C10.2432 147.633 10.2461 147.636 10.2495 147.64C10.2565 147.649 10.2659 147.66 10.2777 147.674C10.3015 147.703 10.335 147.743 10.3779 147.794C10.4637 147.896 10.5872 148.042 10.7453 148.228C11.0615 148.599 11.5169 149.129 12.087 149.78C13.2254 151.078 14.8314 152.869 16.7083 154.843C20.3627 158.687 25.407 163.617 30.1511 166.809L37.4868 155.906C34.0076 153.565 29.7872 149.528 26.2326 145.789C24.505 143.972 23.0205 142.317 21.9694 141.118C21.4449 140.519 21.0309 140.037 20.7513 139.709C20.6116 139.545 20.5056 139.419 20.4364 139.337C20.4018 139.296 20.3765 139.265 20.3607 139.247C20.3528 139.237 20.3473 139.231 20.3443 139.227C20.3427 139.225 20.3418 139.224 20.3415 139.224C20.3414 139.223 20.3414 139.223 20.3415 139.224C20.3416 139.224 20.3419 139.224 20.3419 139.224C20.3422 139.224 20.3425 139.225 15.2894 143.425ZM30.1511 166.809C34.9262 170.021 39.3192 171.725 42.6166 172.625C44.2631 173.074 45.6358 173.323 46.6482 173.462C47.1546 173.531 47.5719 173.572 47.8894 173.597C48.0482 173.61 48.1822 173.618 48.2901 173.624C48.344 173.627 48.3915 173.629 48.4322 173.63C48.4526 173.631 48.4713 173.632 48.4883 173.632C48.4969 173.633 48.505 173.633 48.5126 173.633C48.5165 173.633 48.5202 173.633 48.5238 173.633C48.5256 173.634 48.5283 173.634 48.5292 173.634C48.5318 173.634 48.5343 173.634 48.7074 167.065C48.8805 160.497 48.883 160.497 48.8856 160.497C48.8864 160.497 48.8888 160.497 48.8904 160.497C48.8937 160.497 48.8968 160.498 48.8998 160.498C48.9058 160.498 48.9115 160.498 48.9168 160.498C48.9273 160.499 48.9364 160.499 48.9439 160.499C48.9589 160.5 48.9679 160.5 48.971 160.5C48.9773 160.501 48.96 160.5 48.9205 160.497C48.8414 160.49 48.6737 160.475 48.4268 160.441C47.9325 160.374 47.125 160.233 46.0773 159.947C43.9862 159.377 40.935 158.226 37.4868 155.906L30.1511 166.809Z" fill="#439D01"/>
<path d="M18.4737 145.009C16.4191 146.58 13.5137 145.909 11.8941 143.79C10.2744 141.672 9.88359 139.328 11.941 137.757C13.9955 136.186 18.1897 136.578 19.8094 138.697C21.4291 140.815 20.5282 143.438 18.4737 145.009Z" fill="#8ED219"/>
<path d="M19.9606 138.776C18.3129 136.79 15.3672 136.515 13.3813 138.163C11.3953 139.811 11.1212 142.757 12.7689 144.743L19.9606 138.776ZM16.3648 141.759C12.7689 144.743 12.7692 144.743 12.7695 144.743C12.7697 144.743 12.7701 144.744 12.7704 144.744C12.771 144.745 12.7718 144.746 12.7728 144.747C12.7747 144.749 12.7772 144.752 12.7803 144.756C12.7865 144.764 12.7951 144.774 12.806 144.787C12.828 144.813 12.8593 144.851 12.8998 144.899C12.9807 144.996 13.098 145.135 13.2487 145.312C13.5499 145.666 13.9853 146.174 14.5313 146.798C15.6218 148.044 17.1605 149.763 18.9578 151.657C22.4816 155.37 27.2578 160.034 31.6869 163.019L36.9095 155.27C33.3799 152.891 29.1893 148.863 25.7361 145.224C24.0449 143.442 22.5925 141.82 21.5641 140.644C21.0505 140.058 20.6445 139.584 20.3692 139.26C20.2316 139.098 20.1268 138.974 20.0577 138.892C20.0231 138.85 19.9975 138.82 19.9812 138.8C19.9731 138.79 19.9673 138.783 19.9638 138.779C19.9621 138.777 19.961 138.776 19.9604 138.775C19.9602 138.775 19.96 138.775 19.9601 138.775C19.9601 138.775 19.9602 138.775 19.9602 138.775C19.9604 138.775 19.9606 138.776 16.3648 141.759ZM31.6869 163.019C36.1381 166.019 40.2179 167.6 43.255 168.43C44.772 168.845 46.0283 169.073 46.9419 169.198C47.3989 169.26 47.7709 169.297 48.0477 169.319C48.1862 169.33 48.3009 169.337 48.3908 169.342C48.4357 169.344 48.4744 169.346 48.5067 169.347C48.5229 169.348 48.5374 169.348 48.5504 169.349C48.5568 169.349 48.5629 169.349 48.5686 169.349C48.5714 169.349 48.5742 169.349 48.5768 169.35C48.5781 169.35 48.58 169.35 48.5807 169.35C48.5825 169.35 48.5844 169.35 48.7077 164.679C48.831 160.008 48.8328 160.008 48.8345 160.008C48.8351 160.008 48.8368 160.008 48.838 160.008C48.8402 160.008 48.8424 160.008 48.8444 160.009C48.8485 160.009 48.8522 160.009 48.8556 160.009C48.8623 160.009 48.8674 160.009 48.8712 160.009C48.8786 160.01 48.8801 160.01 48.8758 160.01C48.8673 160.009 48.8357 160.007 48.7822 160.003C48.6752 159.995 48.481 159.977 48.2089 159.939C47.6642 159.865 46.8105 159.715 45.7199 159.416C43.542 158.821 40.417 157.634 36.9095 155.27L31.6869 163.019Z" fill="#8ED219"/>
<path d="M53.5671 46.6712V254.354C53.5671 254.354 51.5436 274.775 142.13 274.775C232.717 274.775 229.915 254.354 229.915 254.354L229.915 46.6842C229.908 47.2309 226.805 63.3445 141.741 63.3445C55.3387 63.3445 53.5671 46.6712 53.5671 46.6712Z" fill="url(#paint0_linear_1657_6551)"/>
<path d="M53.5671 46.6712C53.5671 46.6712 55.3387 63.3445 141.741 63.3445C226.805 63.3445 229.908 47.2309 229.915 46.6842C231.577 19.0045 55.1875 19.5751 53.5671 46.6712Z" fill="url(#paint1_linear_1657_6551)"/>
<path d="M53.5671 46.6712V254.354C53.5671 254.354 51.5436 274.775 142.13 274.775C232.717 274.775 229.915 254.354 229.915 254.354L229.915 46.6842M53.5671 46.6712C53.5671 46.6712 55.3387 63.3445 141.741 63.3445C226.805 63.3445 229.908 47.2309 229.915 46.6842M53.5671 46.6712C55.1875 19.5751 231.577 19.0045 229.915 46.6842" stroke="#011240" stroke-width="13.1412"/>
<path d="M60.0528 59.6852C60.0528 59.6852 75.4327 69.3363 141.714 69.3363C207.996 69.3363 223.389 59.6853 223.389 59.6853V74.0892C223.389 74.0892 208.002 83.4993 141.714 83.5047C75.4411 83.4993 60.0526 74.0892 60.0526 74.0892L60.0528 59.6852Z" fill="white"/>
<path d="M60.0526 73.9556L65.4541 76.0635C65.4541 76.0635 65.3541 257.818 65.4305 257.972C65.507 258.126 60.1717 255.636 60.0533 253.831C59.9349 252.026 60.0526 73.9556 60.0526 73.9556Z" fill="white"/>
<path d="M69.7999 76.8612L77.1448 78.5299V262.339C74.4993 261.637 72.8504 261.155 69.7999 259.902V76.8612Z" fill="white"/>
<path d="M204.669 64.9036C204.662 65.2954 217.695 62.3041 223.395 59.7197V74.2515C217.007 76.9795 205.135 81.1024 205.135 79.2816C205.135 77.4609 204.677 64.5119 204.669 64.9036Z" fill="#8690C1" fill-opacity="0.7"/>
<path d="M205.13 79.212C214.31 77.491 218.408 76.2771 223.39 74.1499V254.766C219.663 258.481 215.42 260.064 206.069 262.475L205.13 79.212Z" fill="#439D01"/>
<path d="M160.922 166.969C159.546 181.989 150 186.408 141.483 186.408C132.966 186.408 123.298 180.46 122.23 166.969C121.161 153.479 130.174 160.74 141.483 161.143C152.792 161.546 162.299 151.95 160.922 166.969Z" fill="#011240"/>
<path d="M154.527 175.774C153.112 179.548 147.493 183.674 141.494 183.674C135.495 183.674 128.657 178.61 128.657 175.774C131.224 172.318 135.495 171.528 141.494 171.528C147.493 171.528 151.861 172.022 154.527 175.774Z" fill="#E2464A"/>
<path d="M152.132 179.112C152.132 179.913 147.074 183.391 142.179 183.673C137.283 183.955 131.632 180.536 130.87 179.112C133.212 176.647 138.213 176.154 142.179 176.154C146.144 176.154 150.468 177.633 152.132 179.112Z" fill="#FF7975"/>
<path d="M99.9074 109.259C100.332 109.039 100.708 108.7 101.135 108.492C102.379 107.888 103.72 107.424 105.01 106.998C106.629 106.464 108.305 105.899 109.99 105.809" stroke="#011240" stroke-width="7.88473" stroke-linecap="round"/>
<path d="M182.721 108.513C182.296 108.295 181.918 107.958 181.49 107.753C180.243 107.155 178.899 106.697 177.607 106.278C175.985 105.752 174.307 105.196 172.622 105.114" stroke="#011240" stroke-width="7.88473" stroke-linecap="round"/>
<path fill-rule="evenodd" clip-rule="evenodd" d="M162.701 129.713C163.738 130.916 165.179 131.661 166.773 131.661C169.932 131.661 172.493 128.73 172.493 125.115C172.493 123.993 172.246 122.938 171.812 122.015C174.034 121.098 176.455 120.595 178.988 120.595C189.799 120.595 198.563 129.768 198.563 141.084C198.563 152.4 189.799 161.573 178.988 161.573C168.177 161.573 159.413 152.4 159.413 141.084C159.413 136.877 160.624 132.967 162.701 129.713Z" fill="#011240"/>
<path fill-rule="evenodd" clip-rule="evenodd" d="M167.945 131.503C170.107 130.977 171.818 129.053 172.32 126.597C172.974 126.353 173.683 126.22 174.439 126.22C178.872 125.915 181.16 129.306 181.16 133.113C181.581 137.024 178.151 140.007 174.439 140.007C170.727 140.007 167.199 136.893 167.553 133.059C167.643 132.529 167.774 132.007 167.945 131.503Z" fill="white"/>
<path d="M184.889 147.723C184.889 150.545 182.289 152.833 179.467 152.833C176.644 152.833 174.356 150.545 174.356 147.723C174.356 144.9 176.644 142.613 179.467 142.613C182.289 142.613 184.889 144.9 184.889 147.723Z" fill="white"/>
<path d="M184.269 127.055C184.269 128.855 182.38 130.237 180.69 130.237C179.001 130.237 178.09 128.687 178.09 126.887C178.09 125.088 179.276 123.69 180.965 123.69C182.655 123.69 184.269 125.256 184.269 127.055Z" fill="white"/>
<path d="M109.336 170.307C109.336 173.563 105.136 176.28 100.264 176.28C95.3914 176.28 91.3571 173.895 91.3571 170.64C91.3571 167.385 93.3241 164.491 100.264 164.491C106.957 164.492 109.336 167.052 109.336 170.307Z" fill="#FEAD61"/>
<path d="M109.081 169.538C108.867 171.855 104.905 174.167 100.114 174.167C95.3236 174.167 91.9142 172.21 91.9142 169.538C91.0635 167.87 93.291 164.491 100.114 164.491C107.395 164.491 109.295 167.221 109.081 169.538Z" fill="#FFBE6A"/>
<path d="M171.754 170.307C171.754 173.563 175.954 176.28 180.826 176.28C185.699 176.28 189.733 173.895 189.733 170.64C189.733 167.385 187.766 164.491 180.826 164.491C174.133 164.492 171.754 167.052 171.754 170.307Z" fill="#FEAD61"/>
<path d="M172.009 169.538C172.223 171.855 176.185 174.167 180.976 174.167C185.767 174.167 189.176 172.21 189.176 169.538C190.027 167.87 187.799 164.491 180.976 164.491C173.695 164.491 171.795 167.221 172.009 169.538Z" fill="#FFBE6A"/>
<path fill-rule="evenodd" clip-rule="evenodd" d="M103.587 161.573C114.398 161.573 123.162 152.4 123.162 141.084C123.162 137.805 122.426 134.705 121.118 131.957C120.126 133.905 118.282 135.214 116.171 135.214C113.012 135.214 110.451 132.283 110.451 128.667C110.451 126.356 111.497 124.325 113.078 123.16C110.267 121.525 107.031 120.595 103.587 120.595C92.7758 120.595 84.0116 129.768 84.0116 141.084C84.0116 152.4 92.7758 161.573 103.587 161.573Z" fill="#011240"/>
<path d="M106.653 133.744C106.653 137.666 103.642 140.011 99.7651 140.011C95.8883 140.011 92.2609 137.261 92.2609 133.339C92.2609 129.417 95.8884 126.267 99.7652 126.267C103.636 125.698 106.653 129.822 106.653 133.744Z" fill="white"/>
<path d="M109.129 127.264C109.129 128.952 107.872 130.32 106.321 130.32C104.77 130.32 103.513 128.952 103.513 127.264C103.513 125.577 104.77 124.408 106.321 124.408C107.872 124.408 109.129 125.577 109.129 127.264Z" fill="white"/>
<path d="M109.99 147.899C109.99 150.721 107.39 153.009 104.568 153.009C101.745 153.009 99.4573 150.721 99.4573 147.899C99.4573 145.076 101.745 142.788 104.568 142.788C107.39 142.788 109.99 145.076 109.99 147.899Z" fill="white"/>
<ellipse cx="145.042" cy="43.8691" rx="88.1324" ry="18.6974" fill="#011240"/>
<ellipse cx="141.653" cy="43.74" rx="76.4914" ry="12.0915" fill="white"/>
<path d="M205.177 46.1394C201.615 53.5664 177.822 55.8331 144.079 55.8331C110.335 55.8331 79.5567 53.1903 77.3019 46.1394C77.3019 39.4827 113.305 35.2843 147.049 35.2843C180.793 35.2843 205.177 40.7857 205.177 46.1394Z" fill="#8ED219"/>
<path d="M102.575 18.0827C102.573 -5.82561 179.85 -6.22869 179.85 18.0827C179.85 32.129 179.85 38.6004 179.85 41.5611C179.85 43.0889 179.063 44.5137 177.71 45.2217C157.434 55.8263 119.984 53.3409 104.606 45.2057C103.3 44.5144 102.576 43.1246 102.576 41.6464C102.576 38.7081 102.577 32.2235 102.575 18.0827Z" fill="#011240"/>
<path d="M112.818 22.0876C112.718 10.2157 169.455 9.58835 169.597 22.0876C169.701 31.3466 169.651 38.2773 169.618 41.2486C169.607 42.2392 169.071 43.1516 168.18 43.585C153.624 50.6667 125.935 48.7523 114.32 43.5794C113.374 43.1582 112.826 42.1997 112.833 41.1643C112.857 38.0509 112.893 30.8908 112.818 22.0876Z" fill="#8690C1"/>
<ellipse cx="141.239" cy="21.2771" rx="28.4206" ry="8.33022" fill="white"/>
<path d="M112.818 21.3225L115.992 24.4643V44.2366C113.514 43.401 112.809 42.7839 112.818 41.8669V21.3225Z" fill="white"/>
<path d="M121.598 27.2516L130.668 28.9449V47.5073C127.14 47.0867 125.144 46.7318 121.598 45.9442V27.2516Z" fill="white"/>
<path d="M166.714 24.9678C163.138 26.7917 160.741 27.5323 155.611 28.4623V47.2291C163.266 46.2449 165.832 44.5421 166.714 44.2721V24.9678Z" fill="#464C95"/>
<path d="M120.298 13.2191C120.299 7.91958 162.179 7.55971 162.179 13.2191C162.179 15.8806 162.179 17.4553 162.179 18.3766C162.179 19.1989 162.03 20.058 161.383 20.5652C155.676 25.0366 125.457 25.379 120.787 19.8559C120.369 19.361 120.298 18.6944 120.298 18.0464C120.298 17.2446 120.298 15.8008 120.298 13.2191Z" fill="#011240"/>
<path d="M123.868 14.0601C123.868 8.11193 158.476 7.3181 158.532 14.0601C158.588 20.8022 158.532 13.7469 158.532 17.9846C158.532 22.2224 125.813 22.7671 123.868 17.6168C123.868 17.6168 123.868 20.0083 123.868 14.0601Z" fill="#8690C1"/>
<path d="M158.516 13.3753C158.516 15.433 150.759 16.699 141.191 16.699C131.622 16.699 123.865 15.433 123.865 13.3753C123.865 11.3176 131.622 9.2406 141.191 9.2406C150.759 9.2406 158.516 11.3176 158.516 13.3753Z" fill="white"/>
<path d="M123.865 13.306L126.314 14.7523V19.4574C124.4 18.7876 123.871 18.0079 123.865 17.5984V13.306Z" fill="white"/>
<path d="M156.759 14.9542C154.414 15.6675 152.264 16.2151 146.899 16.5155V21.1651C151.141 21.0368 154.349 20.4029 156.759 19.5417V14.9542Z" fill="#464C95"/>
<defs>
<linearGradient id="paint0_linear_1657_6551" x1="133.201" y1="153.777" x2="212.761" y2="274.775" gradientUnits="userSpaceOnUse">
<stop stop-color="#8ED219"/>
<stop offset="1" stop-color="#50A903"/>
</linearGradient>
<linearGradient id="paint1_linear_1657_6551" x1="133.201" y1="153.777" x2="212.761" y2="274.775" gradientUnits="userSpaceOnUse">
<stop stop-color="#8ED219"/>
<stop offset="1" stop-color="#50A903"/>
</linearGradient>
</defs>
</svg>
